<svg width="145" height="34" viewBox="0 0 145 34" fill="none" xmlns="http://www.w3.org/2000/svg">
<g clip-path="url(#clip0_2412_13580)">
<g clip-path="url(#clip1_2412_13580)">
<g clip-path="url(#clip2_2412_13580)">
<path d="M17.5744 8.3586L8.56514 17.4153C6.83464 19.1549 4.02838 19.1549 2.29788 17.4153C0.567374 15.6757 0.567374 12.8547 2.29788 11.115L8.17406 5.20901C9.90457 3.46939 12.7108 3.46939 14.4413 5.20901L17.5744 8.3586Z" fill="white"/>
<path d="M5.47656 26.0568L14.4858 17C16.2163 15.2604 19.0226 15.2604 20.7531 17C22.4836 18.7397 22.4836 21.5607 20.7531 23.3003L14.878 29.2063C13.1475 30.946 10.3413 30.946 8.61075 29.2063L5.47767 26.0568H5.47656Z" fill="white"/>
</g>
</g>
<g clip-path="url(#clip3_2412_13580)">
<path fill-rule="evenodd" clip-rule="evenodd" d="M116.8 0.248047H113.839V0.272906C109.857 0.280519 107.301 2.91552 107.301 6.97464V9.02545V13.2003V27.0433H112.208V13.6688H115.992V9.02545H112.208V7.04788C112.208 5.03369 113.637 4.55761 114.735 4.55761H116.797V1.04992H116.8V0.248047ZM51.1887 16.4596C51.2986 14.4821 52.5071 12.944 54.5578 12.944C56.9015 12.944 57.8903 14.5187 57.8903 16.5329V27.0433H62.7608V15.6906C62.7608 11.7354 60.6368 8.54937 56.0592 8.54937C54.3381 8.54937 52.3606 9.13531 51.1887 10.5269V0.272889L46.3182 1.5044V27.0433H51.1887V16.4596ZM29.3652 22.0261C29.585 24.0769 31.4526 27.5926 36.8724 27.5926C41.5965 27.5926 43.8669 24.5896 43.8669 21.6599C43.8669 19.0231 42.0725 16.8625 38.5203 16.13L35.9569 15.5807C34.9682 15.3976 34.309 14.8483 34.309 13.9694C34.309 12.944 35.3344 12.1749 36.6161 12.1749C38.6668 12.1749 39.4359 13.5299 39.5823 14.5919L43.6472 13.6764C43.4275 11.7354 41.7063 8.47612 36.5795 8.47612C32.6977 8.47612 29.8413 11.1495 29.8413 14.3722C29.8413 16.8991 31.416 18.9865 34.8949 19.7556L37.2752 20.3049C38.6668 20.5979 39.2161 21.2571 39.2161 22.0627C39.2161 23.0149 38.4471 23.8572 36.8358 23.8572C34.7118 23.8572 33.6498 22.5388 33.54 21.1106L29.3652 22.0261ZM69.7547 18.0344C69.7547 21.4035 71.9519 23.1614 74.3323 23.1614C76.7126 23.1614 78.9098 21.4402 78.9098 18.0344C78.9098 14.6285 76.7126 12.9073 74.3323 12.9073C71.9519 12.9073 69.7547 14.6285 69.7547 18.0344ZM64.8842 18.0344C64.8842 12.4679 68.9491 8.47612 74.3323 8.47612C79.7155 8.47612 83.7803 12.4679 83.7803 18.0344C83.7803 23.5642 79.7155 27.5926 74.3323 27.5926C68.9491 27.5926 64.8842 23.5642 64.8842 18.0344ZM91.0306 34.0014V25.2854C91.9095 26.4939 93.7405 27.4827 96.2307 27.4827C101.321 27.4827 104.727 23.4544 104.727 17.9977C104.727 12.651 101.687 8.62261 96.4138 8.62261C93.7039 8.62261 91.6898 9.83112 90.8841 11.2227L89.8805 9.24518L86.1601 10.0692V34.0014H91.0306ZM99.9294 18.0344C99.9294 21.2571 97.9519 23.1248 95.4617 23.1248C92.9715 23.1248 90.9574 21.2204 90.9574 18.0344C90.9574 14.8483 92.9715 12.9806 95.4617 12.9806C97.9519 12.9806 99.9294 14.8483 99.9294 18.0344ZM123.577 27.0433V0.272889L118.706 1.38985V27.0433H123.577ZM130.842 18.0344C130.842 21.4035 133.039 23.1614 135.42 23.1614C137.8 23.1614 139.997 21.4402 139.997 18.0344C139.997 14.6285 137.8 12.9073 135.42 12.9073C133.039 12.9073 130.842 14.6285 130.842 18.0344ZM125.972 18.0344C125.972 12.4679 130.037 8.47612 135.42 8.47612C140.803 8.47612 144.868 12.4679 144.868 18.0344C144.868 23.5642 140.803 27.5926 135.42 27.5926C130.037 27.5926 125.972 23.5642 125.972 18.0344Z" fill="white"/>
</g>
</g>
<defs>
<clipPath id="clip0_2412_13580">
<rect width="145" height="34" fill="white"/>
</clipPath>
<clipPath id="clip1_2412_13580">
<rect width="22.2085" height="27.1138" fill="white" transform="translate(1 3.90234)"/>
</clipPath>
<clipPath id="clip2_2412_13580">
<rect width="21.0486" height="27.4597" fill="white" transform="translate(1 3.9043)"/>
</clipPath>
<clipPath id="clip3_2412_13580">
<rect width="115.619" height="34.1844" fill="white" transform="translate(29.3555)"/>
</clipPath>
</defs>
</svg>
